<mxfile host="app.diagrams.net" agent="Mozilla/5.0 (Windows NT 10.0; Win64; x64) AppleWebKit/537.36 (KHTML, like Gecko) Chrome/127.0.0.0 Safari/537.36 Edg/127.0.0.0" version="24.7.6">
  <diagram name="Page-1" id="U_9kujEDkQ-meCs3RQuU">
    <mxGraphModel dx="2275" dy="1242" grid="1" gridSize="10" guides="1" tooltips="1" connect="1" arrows="1" fold="1" page="1" pageScale="1" pageWidth="827" pageHeight="1169" math="0" shadow="0">
      <root>
        <mxCell id="0" />
        <mxCell id="1" parent="0" />
        <mxCell id="evggDLGjsq_z4R14QUM6-1" value="UI" style="swimlane;whiteSpace=wrap;html=1;" vertex="1" parent="1">
          <mxGeometry x="70" y="60" width="590" height="1250" as="geometry" />
        </mxCell>
        <mxCell id="evggDLGjsq_z4R14QUM6-2" value="" style="ellipse;fillColor=strokeColor;html=1;" vertex="1" parent="evggDLGjsq_z4R14QUM6-1">
          <mxGeometry x="240" y="90" width="30" height="30" as="geometry" />
        </mxCell>
        <mxCell id="evggDLGjsq_z4R14QUM6-3" value="&lt;font style=&quot;font-size: 16px;&quot;&gt;Cliquer sur le Filtre de recherche&lt;/font&gt;" style="html=1;align=center;verticalAlign=top;rounded=1;absoluteArcSize=1;arcSize=10;dashed=0;whiteSpace=wrap;" vertex="1" parent="evggDLGjsq_z4R14QUM6-1">
          <mxGeometry x="168" y="164" width="190" height="50" as="geometry" />
        </mxCell>
        <mxCell id="evggDLGjsq_z4R14QUM6-4" value="" style="html=1;verticalAlign=bottom;labelBackgroundColor=none;endArrow=block;endFill=1;rounded=0;entryX=0.464;entryY=0;entryDx=0;entryDy=0;exitX=0.5;exitY=1;exitDx=0;exitDy=0;entryPerimeter=0;" edge="1" parent="evggDLGjsq_z4R14QUM6-1" source="evggDLGjsq_z4R14QUM6-2" target="evggDLGjsq_z4R14QUM6-3">
          <mxGeometry width="160" relative="1" as="geometry">
            <mxPoint x="10" y="170" as="sourcePoint" />
            <mxPoint x="170" y="170" as="targetPoint" />
          </mxGeometry>
        </mxCell>
        <mxCell id="evggDLGjsq_z4R14QUM6-5" value="&lt;font style=&quot;font-size: 16px;&quot;&gt;Valider la Recherche&lt;/font&gt;" style="html=1;align=center;verticalAlign=top;rounded=1;absoluteArcSize=1;arcSize=10;dashed=0;whiteSpace=wrap;" vertex="1" parent="evggDLGjsq_z4R14QUM6-1">
          <mxGeometry x="190" y="258" width="140" height="50" as="geometry" />
        </mxCell>
        <mxCell id="evggDLGjsq_z4R14QUM6-6" value="&lt;font style=&quot;font-size: 16px;&quot;&gt;Affiche la liste des missions a intégrer dans les dépensées caisse&lt;/font&gt;" style="html=1;align=center;verticalAlign=top;rounded=1;absoluteArcSize=1;arcSize=10;dashed=0;whiteSpace=wrap;fillColor=#D9D9D9;" vertex="1" parent="evggDLGjsq_z4R14QUM6-1">
          <mxGeometry x="163" y="530" width="240" height="70" as="geometry" />
        </mxCell>
        <mxCell id="evggDLGjsq_z4R14QUM6-11" value="&lt;span style=&quot;font-size: 16px;&quot;&gt;Valider&lt;/span&gt;" style="html=1;align=center;verticalAlign=top;rounded=1;absoluteArcSize=1;arcSize=10;dashed=0;whiteSpace=wrap;" vertex="1" parent="evggDLGjsq_z4R14QUM6-1">
          <mxGeometry x="223" y="660" width="120" height="40" as="geometry" />
        </mxCell>
        <mxCell id="evggDLGjsq_z4R14QUM6-13" value="&lt;font style=&quot;font-size: 16px;&quot;&gt;Saisie les champs de filtre&lt;/font&gt;" style="html=1;align=center;verticalAlign=top;rounded=1;absoluteArcSize=1;arcSize=10;dashed=0;whiteSpace=wrap;" vertex="1" parent="evggDLGjsq_z4R14QUM6-1">
          <mxGeometry x="10" y="258" width="140" height="50" as="geometry" />
        </mxCell>
        <mxCell id="evggDLGjsq_z4R14QUM6-14" value="" style="html=1;verticalAlign=bottom;labelBackgroundColor=none;endArrow=block;endFill=1;rounded=0;entryX=0.5;entryY=0;entryDx=0;entryDy=0;exitX=0;exitY=0.5;exitDx=0;exitDy=0;entryPerimeter=0;" edge="1" parent="evggDLGjsq_z4R14QUM6-1" source="evggDLGjsq_z4R14QUM6-3" target="evggDLGjsq_z4R14QUM6-13">
          <mxGeometry width="160" relative="1" as="geometry">
            <mxPoint x="85" y="214" as="sourcePoint" />
            <mxPoint x="86" y="258" as="targetPoint" />
            <Array as="points">
              <mxPoint x="80" y="189" />
            </Array>
          </mxGeometry>
        </mxCell>
        <mxCell id="evggDLGjsq_z4R14QUM6-15" value="" style="html=1;verticalAlign=bottom;labelBackgroundColor=none;endArrow=block;endFill=1;rounded=0;entryX=0;entryY=0.5;entryDx=0;entryDy=0;exitX=1;exitY=0.5;exitDx=0;exitDy=0;" edge="1" parent="evggDLGjsq_z4R14QUM6-1" source="evggDLGjsq_z4R14QUM6-13" target="evggDLGjsq_z4R14QUM6-5">
          <mxGeometry width="160" relative="1" as="geometry">
            <mxPoint x="170" y="350" as="sourcePoint" />
            <mxPoint x="240" y="350" as="targetPoint" />
          </mxGeometry>
        </mxCell>
        <mxCell id="evggDLGjsq_z4R14QUM6-38" value="&lt;font style=&quot;font-size: 16px;&quot;&gt;Affiche toutes les missions qui constitue le lot&lt;/font&gt;" style="html=1;align=center;verticalAlign=top;rounded=1;absoluteArcSize=1;arcSize=10;dashed=0;whiteSpace=wrap;fillColor=#D9D9D9;" vertex="1" parent="evggDLGjsq_z4R14QUM6-1">
          <mxGeometry x="290" y="750" width="260" height="50" as="geometry" />
        </mxCell>
        <mxCell id="evggDLGjsq_z4R14QUM6-40" value="&lt;span style=&quot;font-size: 13px;&quot;&gt;A revoir cette action&lt;/span&gt;" style="shape=note2;boundedLbl=1;whiteSpace=wrap;html=1;size=12;verticalAlign=middle;align=center;fillColor=#FFF2D9;strokeColor=#D79B00;fillOpacity=50;" vertex="1" parent="evggDLGjsq_z4R14QUM6-1">
          <mxGeometry x="23" y="655" width="140" height="50" as="geometry" />
        </mxCell>
        <mxCell id="evggDLGjsq_z4R14QUM6-42" value="" style="html=1;verticalAlign=bottom;labelBackgroundColor=none;endArrow=block;endFill=1;rounded=0;entryX=0;entryY=0;entryDx=140;entryDy=31;exitX=0;exitY=0.75;exitDx=0;exitDy=0;entryPerimeter=0;" edge="1" parent="evggDLGjsq_z4R14QUM6-1" source="evggDLGjsq_z4R14QUM6-11" target="evggDLGjsq_z4R14QUM6-40">
          <mxGeometry width="160" relative="1" as="geometry">
            <mxPoint x="180" y="757" as="sourcePoint" />
            <mxPoint x="220" y="757" as="targetPoint" />
          </mxGeometry>
        </mxCell>
        <mxCell id="evggDLGjsq_z4R14QUM6-21" value="Control" style="swimlane;whiteSpace=wrap;html=1;" vertex="1" parent="1">
          <mxGeometry x="692" y="60" width="408" height="1250" as="geometry" />
        </mxCell>
        <mxCell id="evggDLGjsq_z4R14QUM6-22" value="" style="rhombus;fontSize=18;fontStyle=2" vertex="1" parent="evggDLGjsq_z4R14QUM6-21">
          <mxGeometry x="88" y="189" width="220" height="180" as="geometry" />
        </mxCell>
        <mxCell id="evggDLGjsq_z4R14QUM6-25" value="" style="html=1;verticalAlign=bottom;labelBackgroundColor=none;endArrow=block;endFill=1;rounded=0;entryX=0.006;entryY=0.89;entryDx=0;entryDy=0;entryPerimeter=0;" edge="1" parent="evggDLGjsq_z4R14QUM6-21">
          <mxGeometry width="160" relative="1" as="geometry">
            <mxPoint x="-280" y="680.5" as="sourcePoint" />
            <mxPoint x="566.5600000000004" y="680" as="targetPoint" />
          </mxGeometry>
        </mxCell>
        <mxCell id="evggDLGjsq_z4R14QUM6-26" value="System" style="swimlane;whiteSpace=wrap;html=1;" vertex="1" parent="1">
          <mxGeometry x="1100" y="60" width="480" height="1250" as="geometry" />
        </mxCell>
        <mxCell id="evggDLGjsq_z4R14QUM6-27" value="&lt;font style=&quot;font-size: 16px;&quot;&gt;Récupéré&amp;nbsp; en fonction du critère de recherche Toute les missions ayant le statut à payer&lt;/font&gt;" style="html=1;align=center;verticalAlign=top;rounded=1;absoluteArcSize=1;arcSize=10;dashed=0;whiteSpace=wrap;" vertex="1" parent="evggDLGjsq_z4R14QUM6-26">
          <mxGeometry x="107" y="250" width="363" height="50" as="geometry" />
        </mxCell>
        <mxCell id="evggDLGjsq_z4R14QUM6-28" value="" style="html=1;verticalAlign=bottom;labelBackgroundColor=none;endArrow=block;endFill=1;rounded=0;" edge="1" parent="evggDLGjsq_z4R14QUM6-26">
          <mxGeometry width="160" relative="1" as="geometry">
            <mxPoint x="-100" y="280.29" as="sourcePoint" />
            <mxPoint x="110" y="279" as="targetPoint" />
          </mxGeometry>
        </mxCell>
        <mxCell id="evggDLGjsq_z4R14QUM6-37" value="&lt;font style=&quot;font-size: 16px;&quot;&gt;Recupere toutes les missions qui constitue le lot&lt;/font&gt;" style="html=1;align=center;verticalAlign=top;rounded=1;absoluteArcSize=1;arcSize=10;dashed=0;whiteSpace=wrap;" vertex="1" parent="evggDLGjsq_z4R14QUM6-26">
          <mxGeometry x="158.5" y="650" width="260" height="50" as="geometry" />
        </mxCell>
        <mxCell id="evggDLGjsq_z4R14QUM6-31" value="" style="html=1;verticalAlign=bottom;labelBackgroundColor=none;endArrow=block;endFill=1;rounded=0;exitX=0.459;exitY=1.093;exitDx=0;exitDy=0;exitPerimeter=0;entryX=1;entryY=0.5;entryDx=0;entryDy=0;" edge="1" parent="1" target="evggDLGjsq_z4R14QUM6-6">
          <mxGeometry width="160" relative="1" as="geometry">
            <mxPoint x="1344.6999999999998" y="359.65" as="sourcePoint" />
            <mxPoint x="530" y="470" as="targetPoint" />
            <Array as="points">
              <mxPoint x="1345" y="620" />
            </Array>
          </mxGeometry>
        </mxCell>
        <mxCell id="evggDLGjsq_z4R14QUM6-33" value="" style="html=1;verticalAlign=bottom;labelBackgroundColor=none;endArrow=block;endFill=1;rounded=0;entryX=0;entryY=0.5;entryDx=0;entryDy=0;exitX=0.999;exitY=0.448;exitDx=0;exitDy=0;exitPerimeter=0;" edge="1" parent="1" source="evggDLGjsq_z4R14QUM6-5" target="evggDLGjsq_z4R14QUM6-22">
          <mxGeometry width="160" relative="1" as="geometry">
            <mxPoint x="470" y="340" as="sourcePoint" />
            <mxPoint x="650" y="340" as="targetPoint" />
          </mxGeometry>
        </mxCell>
        <mxCell id="evggDLGjsq_z4R14QUM6-39" value="" style="html=1;verticalAlign=bottom;labelBackgroundColor=none;endArrow=block;endFill=1;rounded=0;entryX=1;entryY=0.5;entryDx=0;entryDy=0;exitX=0.5;exitY=1;exitDx=0;exitDy=0;" edge="1" parent="1" source="evggDLGjsq_z4R14QUM6-37" target="evggDLGjsq_z4R14QUM6-38">
          <mxGeometry width="160" relative="1" as="geometry">
            <mxPoint x="1400" y="840" as="sourcePoint" />
            <mxPoint x="1506.5600000000004" y="920" as="targetPoint" />
            <Array as="points">
              <mxPoint x="1390" y="835" />
            </Array>
          </mxGeometry>
        </mxCell>
      </root>
    </mxGraphModel>
  </diagram>
</mxfile>
